<svg width="24" height="24" viewBox="0 0 24 24" fill="none" xmlns="http://www.w3.org/2000/svg">
<path d="M17.428 16.2166C17.4237 17.9564 15.9634 19.4371 14.3042 19.446C13.8814 19.4482 13.5236 19.2621 13.1888 19.0186C11.8808 18.0674 11.7646 18.0649 10.4606 19.0194C9.99021 19.3636 9.49307 19.4999 8.90501 19.402C7.42524 19.1559 6.24907 17.8286 6.22175 16.3241C6.2117 15.7718 6.40376 15.2914 6.77073 14.8791C7.07435 14.5379 7.42349 14.2459 7.78483 13.9717C8.39957 13.5054 8.8963 12.9378 9.31856 12.2967C9.62887 11.8256 9.92487 11.3426 10.3367 10.9471C11.2155 10.1031 12.4329 10.1028 13.3114 10.9467C13.615 11.2382 13.8657 11.573 14.082 11.9298C14.644 12.8556 15.3696 13.623 16.2306 14.2781C16.7824 14.6978 17.2742 15.1837 17.3911 15.921C17.4104 16.0422 17.4216 16.1643 17.4281 16.2165L17.428 16.2166Z" fill="white"/>
<path d="M4.00003 10.3447C4.00941 9.75303 4.11615 9.25455 4.40156 8.80695C4.99086 7.88243 6.05009 7.70833 6.90655 8.3911C7.94356 9.21783 8.28053 10.9092 7.639 12.0672C7.05481 13.122 5.86028 13.3208 4.97033 12.5077C4.31581 11.9098 4.04299 11.1435 4 10.3446L4.00003 10.3447Z" fill="white"/>
<path d="M7.61312 6.35833C7.62102 5.93631 7.75964 5.35976 8.11709 4.85055C8.94115 3.67705 10.3773 3.71953 11.0952 4.9676C11.7311 6.07359 11.7014 7.20193 10.9862 8.26733C10.295 9.29669 9.04052 9.34009 8.24001 8.39389C7.85121 7.93463 7.61389 7.23647 7.6131 6.35831L7.61312 6.35833Z" fill="white"/>
<path d="M16.0401 6.62225C16.0081 7.30811 15.813 7.99128 15.2741 8.53663C14.5635 9.25608 13.5648 9.2447 12.859 8.51708C11.8615 7.48878 11.8827 5.5322 12.9023 4.52828C13.67 3.77211 14.7299 3.8392 15.4077 4.68337C15.8493 5.23314 16.0281 5.8689 16.0401 6.6224L16.0401 6.62225Z" fill="white"/>
<path d="M19.6364 10.131C19.5936 11.1216 19.2436 11.9705 18.4397 12.5861C17.3291 13.4367 15.9544 12.9367 15.6545 11.5713C15.4109 10.4623 15.7421 9.49939 16.5181 8.70736C17.0411 8.17381 17.6933 7.88022 18.4558 8.15382C19.2476 8.43801 19.53 9.10322 19.6346 9.87373C19.6463 9.95823 19.6365 10.0454 19.6365 10.131L19.6364 10.131Z" fill="white"/>
</svg>
