<svg width="104" height="72" viewBox="0 0 104 72" fill="none" xmlns="http://www.w3.org/2000/svg">
<g clip-path="url(#clip0_306_470)">
<path d="M71.7355 15.1997L52.4527 0.149505C52.3295 0.0537917 52.1783 0.00189209 52.0228 0.00189209C51.8672 0.00189209 51.716 0.0537917 51.5928 0.149505L32.2642 15.1997C32.1802 15.2667 32.1127 15.3523 32.0668 15.4499C32.021 15.5474 31.9981 15.6544 31.9999 15.7623V23.711C31.9985 23.8433 32.0342 23.9734 32.1028 24.0862C32.1713 24.1991 32.27 24.2902 32.3875 24.3491C32.5016 24.4078 32.6301 24.432 32.7575 24.4188C32.8849 24.4055 33.0058 24.3554 33.1056 24.2745L36.317 21.7538V39.2936C36.317 39.6864 36.6695 40.0046 37.0624 40.0046H66.5946C66.785 40.0066 66.9686 39.9333 67.1061 39.8004C67.2436 39.6675 67.324 39.4856 67.3302 39.2936V21.4792L70.8915 24.2709C71.0122 24.3671 71.1615 24.4194 71.3153 24.4193C71.4197 24.4193 71.5226 24.3943 71.6157 24.3465C71.7328 24.2874 71.831 24.1961 71.899 24.0832C71.9669 23.9703 72.0019 23.8404 71.9998 23.7083V15.7597C72.0012 15.6522 71.978 15.5458 71.9322 15.4487C71.8864 15.3516 71.8191 15.2664 71.7355 15.1997ZM65.9205 38.5754H37.7267V20.657L52.0201 9.55933L65.9205 20.3797V38.5754ZM70.5901 22.256L52.4501 8.09902C52.3284 8.00287 52.1782 7.95062 52.0236 7.95062C51.869 7.95062 51.7189 8.00287 51.5972 8.09902L33.4095 22.2622V16.109L52.0245 1.61071L70.5901 16.109V22.256Z" fill="white"/>
<path d="M48.5833 19.1716C46.2996 19.1716 44.5207 20.7884 44.0502 23.2886C43.3877 26.7727 45.4511 31.383 51.5551 33.8263L51.5921 33.8397C51.8552 33.9383 52.1448 33.9383 52.4079 33.8397L52.4493 33.8237C58.5507 31.3306 60.6123 26.7345 59.9489 23.2868V23.2815C59.4537 20.8079 57.6678 19.209 55.3982 19.209C54.3084 19.209 53.1445 19.5983 52.0062 20.3395C50.8546 19.5645 49.7092 19.1716 48.5833 19.1716ZM55.3974 20.6311C56.9894 20.6311 58.2026 21.7536 58.5692 23.5641C59.3295 27.5273 55.8317 30.8853 52.0026 32.4771C46.7066 30.3271 44.8881 26.4554 45.4388 23.5588C45.7824 21.7323 46.9885 20.5973 48.5868 20.5973C49.5189 20.5973 50.5542 21.0061 51.5824 21.7794C51.7029 21.87 51.8489 21.9194 51.9991 21.9203C52.1494 21.9213 52.296 21.8738 52.4176 21.7847C53.4414 21.0292 54.4731 20.6311 55.3974 20.6311Z" fill="white"/>
</g>
<path d="M11.5576 66H8.9209V60.5156H3.7793V66H1.14258V53.2031H3.7793V58.3887H8.9209V53.2031H11.5576V66ZM18.0791 66.1758C16.6846 66.1758 15.5479 65.748 14.6689 64.8926C13.7959 64.0371 13.3594 62.8975 13.3594 61.4736V61.2275C13.3594 60.2725 13.5439 59.4199 13.9131 58.6699C14.2822 57.9141 14.8037 57.334 15.4775 56.9297C16.1572 56.5195 16.9307 56.3145 17.7979 56.3145C19.0986 56.3145 20.1211 56.7246 20.8652 57.5449C21.6152 58.3652 21.9902 59.5283 21.9902 61.0342V62.0713H15.9346C16.0166 62.6924 16.2627 63.1904 16.6729 63.5654C17.0889 63.9404 17.6133 64.1279 18.2461 64.1279C19.2246 64.1279 19.9893 63.7734 20.54 63.0645L21.7881 64.4619C21.4072 65.001 20.8916 65.4229 20.2412 65.7275C19.5908 66.0264 18.8701 66.1758 18.0791 66.1758ZM17.7891 58.3711C17.2852 58.3711 16.875 58.541 16.5586 58.8809C16.248 59.2207 16.0488 59.707 15.9609 60.3398H19.4941V60.1377C19.4824 59.5752 19.3301 59.1416 19.0371 58.8369C18.7441 58.5264 18.3281 58.3711 17.7891 58.3711ZM26.1211 66H23.5723V52.5H26.1211V66ZM36.7822 61.333C36.7822 62.7979 36.4482 63.9727 35.7803 64.8574C35.1182 65.7363 34.2217 66.1758 33.0908 66.1758C32.1299 66.1758 31.3535 65.8418 30.7617 65.1738V69.6562H28.2217V56.4902H30.5771L30.665 57.4219C31.2803 56.6836 32.083 56.3145 33.0732 56.3145C34.2451 56.3145 35.1562 56.748 35.8066 57.6152C36.457 58.4824 36.7822 59.6777 36.7822 61.2012V61.333ZM34.2422 61.1484C34.2422 60.2637 34.084 59.5811 33.7676 59.1006C33.457 58.6201 33.0029 58.3799 32.4053 58.3799C31.6084 58.3799 31.0605 58.6846 30.7617 59.2939V63.1875C31.0723 63.8145 31.626 64.1279 32.4229 64.1279C33.6357 64.1279 34.2422 63.1348 34.2422 61.1484ZM45.7559 63.3633H41.1328L40.2539 66H37.4502L42.2139 53.2031H44.6572L49.4473 66H46.6436L45.7559 63.3633ZM41.8447 61.2275H45.0439L43.4355 56.4375L41.8447 61.2275ZM52.3916 56.4902L52.4707 57.5889C53.1504 56.7393 54.0615 56.3145 55.2041 56.3145C56.2119 56.3145 56.9619 56.6104 57.4541 57.2021C57.9463 57.7939 58.1982 58.6787 58.21 59.8564V66H55.6699V59.918C55.6699 59.3789 55.5527 58.9893 55.3184 58.749C55.084 58.5029 54.6943 58.3799 54.1494 58.3799C53.4346 58.3799 52.8984 58.6846 52.541 59.2939V66H50.001V56.4902H52.3916ZM62.8242 66H60.2754V56.4902H62.8242V66ZM60.126 54.0293C60.126 53.6484 60.252 53.335 60.5039 53.0889C60.7617 52.8428 61.1104 52.7197 61.5498 52.7197C61.9834 52.7197 62.3291 52.8428 62.5869 53.0889C62.8447 53.335 62.9736 53.6484 62.9736 54.0293C62.9736 54.416 62.8418 54.7324 62.5781 54.9785C62.3203 55.2246 61.9775 55.3477 61.5498 55.3477C61.1221 55.3477 60.7764 55.2246 60.5127 54.9785C60.2549 54.7324 60.126 54.416 60.126 54.0293ZM67.3066 56.4902L67.3857 57.5537C68.0596 56.7275 68.9707 56.3145 70.1191 56.3145C71.3438 56.3145 72.1846 56.7979 72.6416 57.7646C73.3096 56.7979 74.2617 56.3145 75.498 56.3145C76.5293 56.3145 77.2969 56.6162 77.8008 57.2197C78.3047 57.8174 78.5566 58.7197 78.5566 59.9268V66H76.0078V59.9355C76.0078 59.3965 75.9023 59.0039 75.6914 58.7578C75.4805 58.5059 75.1084 58.3799 74.5752 58.3799C73.8135 58.3799 73.2861 58.7432 72.9932 59.4697L73.002 66H70.4619V59.9443C70.4619 59.3936 70.3535 58.9951 70.1367 58.749C69.9199 58.5029 69.5508 58.3799 69.0293 58.3799C68.3086 58.3799 67.7871 58.6787 67.4648 59.2764V66H64.9248V56.4902H67.3066ZM86.0273 66C85.9102 65.7715 85.8252 65.4873 85.7725 65.1475C85.1572 65.833 84.3574 66.1758 83.373 66.1758C82.4414 66.1758 81.668 65.9062 81.0527 65.3672C80.4434 64.8281 80.1387 64.1484 80.1387 63.3281C80.1387 62.3203 80.5107 61.5469 81.2549 61.0078C82.0049 60.4688 83.0859 60.1963 84.498 60.1904H85.667V59.6455C85.667 59.2061 85.5527 58.8545 85.3242 58.5908C85.1016 58.3271 84.7471 58.1953 84.2607 58.1953C83.833 58.1953 83.4961 58.2979 83.25 58.5029C83.0098 58.708 82.8896 58.9893 82.8896 59.3467H80.3496C80.3496 58.7959 80.5195 58.2861 80.8594 57.8174C81.1992 57.3486 81.6797 56.9824 82.3008 56.7188C82.9219 56.4492 83.6191 56.3145 84.3926 56.3145C85.5645 56.3145 86.4932 56.6104 87.1787 57.2021C87.8701 57.7881 88.2158 58.6143 88.2158 59.6807V63.8027C88.2217 64.7051 88.3477 65.3877 88.5938 65.8506V66H86.0273ZM83.9268 64.2334C84.3018 64.2334 84.6475 64.1514 84.9639 63.9873C85.2803 63.8174 85.5146 63.5918 85.667 63.3105V61.6758H84.7178C83.4463 61.6758 82.7695 62.1152 82.6875 62.9941L82.6787 63.1436C82.6787 63.46 82.79 63.7207 83.0127 63.9258C83.2354 64.1309 83.54 64.2334 83.9268 64.2334ZM92.8477 66H90.2988V52.5H92.8477V66ZM100.099 63.3721C100.099 63.0615 99.9434 62.8184 99.6328 62.6426C99.3281 62.4609 98.8359 62.2998 98.1562 62.1592C95.8945 61.6846 94.7637 60.7236 94.7637 59.2764C94.7637 58.4326 95.1123 57.7295 95.8096 57.167C96.5127 56.5986 97.4297 56.3145 98.5605 56.3145C99.7676 56.3145 100.731 56.5986 101.452 57.167C102.179 57.7354 102.542 58.4736 102.542 59.3818H100.002C100.002 59.0186 99.8848 58.7197 99.6504 58.4854C99.416 58.2451 99.0498 58.125 98.5518 58.125C98.124 58.125 97.793 58.2217 97.5586 58.415C97.3242 58.6084 97.207 58.8545 97.207 59.1533C97.207 59.4346 97.3389 59.6631 97.6025 59.8389C97.8721 60.0088 98.3232 60.1582 98.9561 60.2871C99.5889 60.4102 100.122 60.5508 100.556 60.709C101.897 61.2012 102.568 62.0537 102.568 63.2666C102.568 64.1338 102.196 64.8369 101.452 65.376C100.708 65.9092 99.7471 66.1758 98.5693 66.1758C97.7725 66.1758 97.0635 66.0352 96.4424 65.7539C95.8271 65.4668 95.3438 65.0771 94.9922 64.585C94.6406 64.0869 94.4648 63.5508 94.4648 62.9766H96.873C96.8965 63.4277 97.0635 63.7734 97.374 64.0137C97.6846 64.2539 98.1006 64.374 98.6221 64.374C99.1084 64.374 99.4746 64.2832 99.7207 64.1016C99.9727 63.9141 100.099 63.6709 100.099 63.3721Z" fill="white"/>
<defs>
<clipPath id="clip0_306_470">
<rect width="40" height="40" fill="white" transform="translate(32)"/>
</clipPath>
</defs>
</svg>
